<?xml version="1.0" encoding="UTF-8"?>
<!DOCTYPE svg PUBLIC "-//W3C//DTD SVG 1.1//EN" "http://www.w3.org/Graphics/SVG/1.1/DTD/svg11.dtd">
<!-- Creator: CorelDRAW (Evaluation Version) -->
<svg xmlns="http://www.w3.org/2000/svg" xml:space="preserve" width="1.57321in" height="1.05796in" version="1.1" style="shape-rendering:geometricPrecision; text-rendering:geometricPrecision; image-rendering:optimizeQuality; fill-rule:evenodd; clip-rule:evenodd"
viewBox="0 0 1237.39 832.13"
 xmlns:xlink="http://www.w3.org/1999/xlink"
 xmlns:xodm="http://www.corel.com/coreldraw/odm/2003">
 <defs>
  <style type="text/css">
   <![CDATA[
    .str0 {stroke:#2D2A2B;stroke-width:6.19;stroke-miterlimit:22.9256}
    .fil6 {fill:none}
    .fil1 {fill:#2D2A2B}
    .fil5 {fill:#F5842A}
    .fil4 {fill:white;fill-rule:nonzero}
    .fil7 {fill:#2D2A2B;fill-rule:nonzero}
    .fil0 {fill:#2D2A2B;fill-rule:nonzero}
    .fil3 {fill:#F5842A;fill-rule:nonzero}
    .fil2 {fill:#00A755;fill-rule:nonzero}
   ]]>
  </style>
 </defs>
 <g id="Layer_x0020_1">
  <metadata id="CorelCorpID_0Corel-Layer"/>
  <g id="_232826152">
   <path class="fil0" d="M229.53 824.39c14.72,0 22.78,-17.48 13.95,-30.17 5.42,4.48 11,6.96 15.5,6.96 2.64,0 4.81,-0.46 6.2,-1.55l0 13.93 0 6.96 13.95 9.28 0 -16.24 0 -49.51 21.7 0 -6.2 -12.38 -44.95 0 6.2 12.38 9.3 0 0 19.34c-3.25,3.86 -7.13,6.04 -10.85,6.19 -6.66,0 -11.78,-1.08 -14.72,-3.09 4.34,-3.09 6.97,-8.05 6.97,-13.15 0,-5.26 -3.1,-10.98 -8.52,-15.63 -5.58,-4.95 -11.78,-7.74 -17.82,-7.58 -6.67,0 -13.33,2.48 -18.6,6.96l6.98 12.38c6.51,-5.57 13.33,-8.67 19.37,-8.51 5.12,0 9.3,3.41 9.3,7.74 0,6.65 -3.72,12.07 -8.52,12.38 -3.57,-1.24 -8.99,-0.32 -14.73,2.32l5.43 11.6c4.8,-0.46 10.23,-2.32 15.5,-5.41 2.02,2.01 3.1,4.8 3.1,7.73 0,7.89 -6.2,14.24 -13.94,14.24 -9.77,0 -19.69,-7.89 -25.57,-20.42l-4.65 3.09c8.52,18.41 22.32,30.17 35.65,30.17zm67.73 -60.34l5.27 0 0 49.51 0 6.96 13.95 9.28 0 -16.24 0 -49.51 21.7 0 -6.2 -12.38 -40.92 0 6.2 12.38zm57.2 63.44l3.88 -3.86c-7.44,-7.43 -11.62,-16.1 -11.62,-23.99 0,-6.81 5.26,-12.38 11.62,-12.38l14.72 0 0 -12.38 -22.63 0c-8.53,0 -15.5,6.96 -15.35,15.48 0,11.45 6.98,24.91 19.38,37.13zm-18.91 -63.44l43.7 0 -6.2 -12.38 -43.71 0 6.2 12.38zm38.43 30.17c0,2.32 2.79,6.34 7.91,11.45 5.12,5.11 9.3,8.05 11.48,7.89 1.7,0 3.1,-2.01 3.1,-4.64l0 -6.19 23.25 0 0 10.83 0 6.96 13.95 9.28 0 -16.24 0 -49.51 21.7 0 -6.2 -12.38 -79.2 0 6.2 12.38 6.35 0 0 26.31 -4.65 0c-2.17,0 -3.88,1.7 -3.88,3.86zm22.48 -3.86l0 -26.31 23.25 0 0 26.31 -23.25 0zm55.8 -26.31l5.26 0 0 49.51 0 6.96 13.95 9.28 0 -16.24 0 -49.51 21.7 0 -6.2 -12.38 -20.15 0c-1.55,-2.16 -2.33,-4.95 -2.33,-7.73 0,-7.28 5.89,-13.15 13.18,-13.15 7.91,0 17.98,5.57 27.9,15.47l3.1 -2.32c-10.85,-15.48 -23.56,-24.6 -34.09,-24.76 -11.16,0 -20.15,7.58 -20.15,17.02 0,5.88 2.17,11.45 6.2,15.47l-14.57 0 6.2 12.38zm35.34 26.31c0,3.86 1.7,8.2 4.81,12.22 2.94,4.02 6.2,6.34 9.14,6.34 1.7,0 3.1,-2.47 3.1,-5.41l0 -2.32c0,-2.63 1.39,-4.8 3.1,-4.64l17.05 0 0 17.02 0 6.96 13.95 9.28 0 -16.24 0 -49.51 21.7 0 -6.2 -12.38 -70.37 0 6.2 12.38 34.72 0 0 20.12 -31 0c-3.41,0 -6.2,2.79 -6.2,6.19zm77.19 4.64c0,2.94 2.79,7.12 7.59,11.6 4.81,4.49 9.3,6.96 12.55,6.96 2.64,0 4.81,-2.79 4.65,-6.19l0 -4.64 21.7 0 0 10.83 0 6.96 13.95 9.28 0 -16.24 0 -49.51 21.7 0 -6.2 -12.38 -52.69 0 7.75 12.38 15.5 0 0 26.31 -21.7 0 0 -18.57c0,-4.49 -2.63,-9.6 -7.28,-14.39 -4.65,-4.64 -9.76,-7.28 -14.41,-7.28 -8.06,0 -14.57,6.19 -14.72,13.93 0,10.06 10.07,19.19 24.02,21.67l0 4.64 -6.2 0c-3.4,0 -6.19,2.01 -6.19,4.64zm13.17 -14.7c-7.75,-2.01 -13.17,-7.27 -13.17,-13.15 0,-4.64 3.4,-8.36 7.75,-8.51 3.41,0 6.2,2.78 6.2,6.19l-0.78 15.47zm37.2 -28.63l6.2 0c-5.58,-6.5 -8.68,-13 -8.53,-18.57 0,-4.33 3.11,-7.89 6.98,-7.73 4.65,0 8.37,3.86 8.52,8.5l4.65 -0.77c0,-10.67 -7.28,-19.34 -16.28,-19.34 -6.82,0 -12.4,5.88 -12.4,13.15 0,7.58 3.87,16.24 10.84,24.76zm58.9 80.46l7.75 -4.64 -21.7 -23.21c6.35,-4.49 10.23,-10.36 10.07,-15.47l0 -24.76 22.78 0 -6.2 -12.38 -47.58 0 6.2 12.38 12.4 0 0 15.47c0,1.86 -0.46,3.87 -1.55,6.19 -2.01,-2.02 -5.12,-3.1 -8.52,-3.1 -2.95,0 -5.27,2.01 -5.43,4.64 0,2.94 2.95,8.35 8.53,15.47l23.25 29.4zm85.25 -37.13c0,2.94 2.79,7.12 7.59,11.6 4.81,4.49 9.3,6.96 12.56,6.96 2.64,0 4.81,-2.79 4.65,-6.19l0 -4.64 21.7 0 0 10.83 0 6.96 13.95 9.28 0 -16.24 0 -49.51 21.7 0 -6.2 -12.38 -52.7 0 7.75 12.38 15.5 0 0 26.31 -21.7 0 0 -18.57c0,-4.49 -2.63,-9.6 -7.28,-14.39 -4.65,-4.64 -9.77,-7.28 -14.42,-7.28 -8.06,0 -14.57,6.19 -14.72,13.93 0,10.06 10.07,19.19 24.02,21.67l0 4.64 -6.2 0c-3.41,0 -6.2,2.01 -6.2,4.64zm13.17 -14.7c-7.75,-2.01 -13.17,-7.27 -13.17,-13.15 0,-4.64 3.41,-8.36 7.75,-8.51 3.41,0 6.2,2.78 6.2,6.19l-0.78 15.47zm65.42 -16.25l5.26 0 0 49.51 0 6.96 13.95 9.28 0 -16.24 0 -49.51 21.7 0 -6.2 -12.38 -40.92 0 6.2 12.38zm66.96 68.08l7.75 -4.64 -21.7 -23.21c6.35,-4.49 10.23,-10.36 10.07,-15.47l0 -24.76 22.78 0 -6.2 -12.38 -47.58 0 6.2 12.38 12.4 0 0 15.47c0,1.86 -0.46,3.87 -1.55,6.19 -2.01,-2.02 -5.11,-3.1 -8.52,-3.1 -2.95,0 -5.27,2.01 -5.43,4.64 0,2.94 2.94,8.35 8.52,15.47l23.25 29.4zm15.19 -41.77c0,11.45 6.98,24.91 19.37,37.13l4.65 -4.64c-7.91,-6.65 -12.55,-15.16 -12.4,-23.21 0,-6.81 5.58,-12.38 12.4,-12.38l13.95 0 0 26.3 0 6.96 13.95 9.28 0 -16.24 0 -49.51 21.7 0 -6.2 -12.38 -73.01 0 6.2 12.38 37.35 0 0 10.83 -20.15 0c-9.92,0 -17.99,6.96 -17.83,15.48z"/>
   <ellipse class="fil1" cx="593.77" cy="341.96" rx="593.77" ry="341.96"/>
   <path class="fil2" d="M780.24 217.81l99.48 0c19.74,0 34.39,0.81 44.06,2.43 9.73,1.68 18.35,5.08 26,10.23 7.64,5.2 14.01,12.08 19.11,20.69 5.1,8.61 7.64,18.32 7.64,29.02 0,11.56 -3.12,22.26 -9.38,31.9 -6.25,9.71 -14.77,16.94 -25.47,21.79 15.11,4.45 26.69,11.96 34.85,22.59 8.11,10.63 12.17,23.12 12.17,37.52 0,11.32 -2.61,22.3 -7.88,33 -5.27,10.69 -12.45,19.25 -21.6,25.66 -9.09,6.35 -20.33,10.29 -33.7,11.79 -8.34,0.87 -28.54,1.45 -60.56,1.68l-84.71 0 0 -248.3zm50.38 41.27l0 57.22 32.89 0c19.51,0 31.67,-0.29 36.42,-0.87 8.57,-0.98 15.34,-3.93 20.26,-8.84 4.92,-4.91 7.35,-11.33 7.35,-19.3 0,-7.69 -2.15,-13.87 -6.37,-18.67 -4.23,-4.8 -10.54,-7.7 -18.88,-8.67 -4.98,-0.58 -19.28,-0.87 -42.85,-0.87l-28.83 0zm0 98.49l0 66.58 46.55 0c18.07,0 29.59,-0.52 34.45,-1.51 7.47,-1.38 13.55,-4.68 18.24,-9.93 4.69,-5.32 7.07,-12.31 7.07,-21.15 0,-7.52 -1.79,-13.82 -5.45,-19.02 -3.59,-5.2 -8.86,-9.02 -15.68,-11.39 -6.84,-2.37 -21.71,-3.58 -44.58,-3.58l-40.59 0z"/>
   <polygon class="fil3" points="483.26,466.11 427.28,466.11 407.6,415.95 352.91,275.72 302.16,409.58 302.14,409.58 280.81,466.11 225.83,466.11 325.5,217.81 380.42,217.81 "/>
   <path class="fil4" d="M593.77 45.6c14.49,0 28.84,0.31 43.04,0.91l0 34.2c-14.19,-0.6 -28.54,-0.91 -43.04,-0.91 -283.79,0 -513.84,117.38 -513.84,262.17 0,130.62 187.24,238.91 432.24,258.86l0 -382.2 48.43 0 128.38 165.31 0 -290.73 0 -8.91 0 -34.24c257.32,24.37 452.89,145.78 452.89,291.9 0,160.63 -236.35,291.41 -531.27,296.22l0 -34.2c276,-4.53 497.02,-120.1 497.02,-262.01 0,-119.76 -157.39,-220.76 -372.39,-252.1l0 375.44 -49.99 0 -126.83 -162.15 0 300.35 0.02 0 0 34.19c-286.23,-9.85 -512.75,-138.48 -512.75,-295.73 0,-163.67 245.39,-296.36 548.1,-296.36z"/>
   <rect class="fil5" x="291.94" y="361.1" width="125.22" height="38.34"/>
   <ellipse class="fil6 str0" cx="1169.14" cy="71.61" rx="65.16" ry="65.04"/>
   <path class="fil7" d="M1185.77 114.16l-21.74 -34.52 -1.08 0 -12.61 0 0 34.52 -12.37 0 0 -85.1 26.9 0c5.69,0 10.61,1.04 14.77,3.11 4.16,2.08 7.35,4.98 9.55,8.7 2.2,3.71 3.3,7.97 3.3,12.76 0,5.36 -1.46,10.17 -4.39,14.45 -2.92,4.27 -6.98,7.41 -12.19,9.41l24.38 36.68 -14.52 0zm-35.43 -44.47l12.73 0c4.81,0 8.79,-1.28 11.95,-3.83 3.16,-2.56 4.74,-6.39 4.74,-11.51 0,-5.04 -1.54,-8.77 -4.62,-11.21 -3.09,-2.44 -7.03,-3.65 -11.83,-3.65l-12.97 0 0 30.21z"/>
  </g>
 </g>
</svg>
