<svg width="151" height="80" viewBox="0 0 151 80" fill="none" xmlns="http://www.w3.org/2000/svg">
<g clip-path="url(#clip0_62_138)">
<path d="M28.0088 79.2559C29.8051 79.2559 30.7887 77.5754 29.7112 76.3554C30.3726 76.7861 31.0535 77.0245 31.6026 77.0245C31.9248 77.0245 32.1896 76.9803 32.3592 76.8755V78.2147V78.8838L34.0615 79.776V78.2147V73.4549H36.7096L35.953 72.2647H30.4677L31.2243 73.4549H32.3592V75.3142C31.9626 75.6853 31.4891 75.8949 31.0352 75.9093C30.2225 75.9093 29.5977 75.8055 29.2389 75.6122C29.7685 75.3152 30.0895 74.8383 30.0895 74.348C30.0895 73.8423 29.7112 73.2924 29.0498 72.8454C28.3688 72.3695 27.6122 72.1012 26.8752 72.1166C26.0612 72.1166 25.2485 72.3551 24.6054 72.7858L25.4572 73.9759C26.2516 73.4405 27.0838 73.1424 27.8209 73.1578C28.4457 73.1578 28.9558 73.4856 28.9558 73.9019C28.9558 74.5412 28.5018 75.0623 27.9161 75.0921C27.4804 74.9729 26.819 75.0614 26.1186 75.3152L26.7812 76.4304C27.367 76.3861 28.0296 76.2073 28.6727 75.9103C28.9192 76.1035 29.051 76.3717 29.051 76.6534C29.051 77.412 28.2944 78.0224 27.3499 78.0224C26.1576 78.0224 24.9471 77.2639 24.2296 76.0593L23.6621 76.3563C24.7018 78.1263 26.3858 79.2569 28.0125 79.2569L28.0088 79.2559ZM36.274 73.4549H36.9171V78.2147V78.8838L38.6194 79.776V78.2147V73.4549H41.2674L40.5109 72.2647H35.5174L36.274 73.4549ZM43.2541 79.5539L43.7276 79.1828C42.8197 78.4685 42.3096 77.635 42.3096 76.8765C42.3096 76.2218 42.9515 75.6863 43.7276 75.6863H45.5239V74.4961H42.7623C41.7214 74.4961 40.8708 75.1652 40.8892 75.9843C40.8892 77.0851 41.7409 78.3791 43.2541 79.5539ZM40.9465 73.4549H46.2792L45.5226 72.2647H40.1887L40.9453 73.4549H40.9465ZM45.6361 76.3554C45.6361 76.5784 45.9766 76.9649 46.6014 77.4562C47.2262 77.9474 47.7363 78.2301 48.0023 78.2147C48.2098 78.2147 48.3806 78.0215 48.3806 77.7686V77.1735H51.2178V78.2147V78.8838L52.9201 79.776V78.2147V73.4549H55.5682L54.8116 72.2647H45.1468L45.9034 73.4549H46.6783V75.9843H46.1108C45.846 75.9843 45.6374 76.1477 45.6374 76.3554H45.6361ZM48.3794 75.9843V73.4549H51.2166V75.9843H48.3794ZM55.1887 73.4549H55.8306V78.2147V78.8838L57.5329 79.776V78.2147V73.4549H60.181L59.4244 72.2647H56.9655C56.7763 72.057 56.6811 71.7888 56.6811 71.5215C56.6811 70.8216 57.3999 70.2573 58.2895 70.2573C59.2547 70.2573 60.4836 70.7928 61.6941 71.7446L62.0724 71.5215C60.7484 70.0333 59.1974 69.1565 57.9124 69.1411C56.5505 69.1411 55.4535 69.8699 55.4535 70.7774C55.4535 71.3427 55.7183 71.8782 56.2101 72.2647H54.4321L55.1887 73.4549ZM59.5012 75.9843C59.5012 76.3554 59.7087 76.7726 60.0882 77.1591C60.447 77.5456 60.8448 77.7686 61.2036 77.7686C61.411 77.7686 61.5819 77.5312 61.5819 77.2485V77.0255C61.5819 76.7726 61.7515 76.564 61.9602 76.5794H64.0408V78.2157V78.8848L65.7431 79.777V78.2157V73.4558H68.3912L67.6346 72.2656H59.0473L59.8039 73.4558H64.0408V75.3902H60.2578C59.8417 75.3902 59.5012 75.6584 59.5012 75.9852V75.9843ZM68.9208 76.4304C68.9208 76.713 69.2612 77.1149 69.847 77.5456C70.434 77.9772 70.9819 78.2147 71.3785 78.2147C71.7006 78.2147 71.9654 77.9465 71.9459 77.6196V77.1735H74.594V78.2147V78.8838L76.2963 79.776V78.2147V73.4549H78.9444L78.1878 72.2647H71.758L72.7037 73.4549H74.5952V75.9843H71.9471V74.199C71.9471 73.7673 71.6262 73.2761 71.0587 72.8156C70.4913 72.3695 69.8677 72.1157 69.3003 72.1157C68.3167 72.1157 67.5223 72.7108 67.504 73.4549C67.504 74.422 68.7328 75.2998 70.4352 75.5382V75.9843H69.6786C69.2637 75.9843 68.9232 76.1775 68.9232 76.4304H68.9208ZM70.5279 75.0171C69.5822 74.8239 68.9208 74.3182 68.9208 73.7529C68.9208 73.3068 69.3357 72.9492 69.8665 72.9348C70.2826 72.9348 70.6231 73.202 70.6231 73.5299L70.5279 75.0171ZM75.0674 72.2647H75.824C75.1431 71.6398 74.7648 71.0149 74.7831 70.4794C74.7831 70.0631 75.1626 69.7208 75.6349 69.7362C76.2023 69.7362 76.6563 70.1073 76.6746 70.5534L77.242 70.4794C77.242 69.4536 76.3537 68.6201 75.2554 68.6201C74.4231 68.6201 73.7422 69.1853 73.7422 69.8843C73.7422 70.613 74.2145 71.4456 75.065 72.2647H75.0674ZM82.255 80L83.2008 79.5539L80.5527 77.3225C81.3276 76.8909 81.8011 76.3265 81.7816 75.8353V73.4549H84.5614L83.8048 72.2647H77.9986L78.7552 73.4549H80.2684V74.9421C80.2684 75.121 80.2123 75.3142 80.0792 75.5372C79.834 75.343 79.4544 75.2392 79.0395 75.2392C78.6796 75.2392 78.3964 75.4325 78.3769 75.6853C78.3769 75.9679 78.7369 76.4881 79.4178 77.1726L82.255 79.999V80ZM92.6581 76.4304C92.6581 76.713 92.9986 77.1149 93.5844 77.5456C94.1713 77.9772 94.7192 78.2147 95.1171 78.2147C95.4392 78.2147 95.704 77.9465 95.6845 77.6196V77.1735H98.3326V78.2147V78.8838L100.035 79.776V78.2147V73.4549H102.683L101.926 72.2647H95.4954L96.4411 73.4549H98.3326V75.9843H95.6845V74.199C95.6845 73.7673 95.3636 73.2761 94.7961 72.8156C94.2287 72.3695 93.6039 72.1157 93.0364 72.1157C92.0529 72.1157 91.2585 72.7108 91.2402 73.4549C91.2402 74.422 92.469 75.2998 94.1713 75.5382V75.9843H93.4147C92.9986 75.9843 92.6581 76.1775 92.6581 76.4304ZM94.2653 75.0171C93.3195 74.8239 92.6581 74.3182 92.6581 73.7529C92.6581 73.3068 93.0743 72.9492 93.6039 72.9348C94.02 72.9348 94.3605 73.202 94.3605 73.5299L94.2653 75.0171ZM102.249 73.4549H102.89V78.2147V78.8838L104.593 79.776V78.2147V73.4549H107.241L106.484 72.2647H101.491L102.247 73.4549H102.249ZM110.42 80L111.365 79.5539L108.717 77.3225C109.492 76.8909 109.966 76.3265 109.946 75.8353V73.4549H112.726L111.969 72.2647H106.163L106.92 73.4549H108.433V74.9421C108.433 75.121 108.377 75.3142 108.244 75.5372C107.999 75.343 107.62 75.2392 107.204 75.2392C106.844 75.2392 106.561 75.4325 106.542 75.6853C106.542 75.9679 106.9 76.4881 107.581 77.1726L110.418 79.999L110.42 80ZM112.273 75.9843C112.273 77.0851 113.125 78.3791 114.637 79.5539L115.204 79.1078C114.239 78.4685 113.673 77.6504 113.691 76.8765C113.691 76.2218 114.372 75.6863 115.204 75.6863H116.907V78.2147V78.8838L118.609 79.776V78.2147V73.4549H121.257L120.501 72.2647H111.591L112.348 73.4549H116.906V74.4961H114.447C113.236 74.4961 112.251 75.1652 112.271 75.9843H112.273Z" fill="#2D2A2B"/>
<path d="M72.458 65.7513C112.475 65.7513 144.916 51.0323 144.916 32.8756C144.916 14.7189 112.475 0 72.458 0C32.4406 0 0 14.7189 0 32.8756C0 51.0323 32.4406 65.7513 72.458 65.7513Z" fill="#2D2A2B"/>
<path d="M95.2129 20.94H107.352C109.761 20.94 111.549 21.0179 112.729 21.1736C113.917 21.3351 114.968 21.662 115.902 22.1571C116.834 22.657 117.612 23.3185 118.234 24.1462C118.856 24.974 119.166 25.9075 119.166 26.9362C119.166 28.0475 118.786 29.0762 118.022 30.003C117.259 30.9365 116.219 31.6316 114.913 32.0979C116.757 32.5257 118.17 33.2477 119.166 34.2696C120.156 35.2916 120.651 36.4924 120.651 37.8768C120.651 38.9651 120.333 40.0207 119.69 41.0494C119.047 42.0771 118.17 42.9 117.054 43.5163C115.945 44.1268 114.573 44.5056 112.941 44.6498C111.924 44.7334 109.459 44.7892 105.551 44.8113H95.2141V20.94H95.2129ZM101.361 24.9077V30.4087H105.374C107.755 30.4087 109.239 30.3808 109.819 30.3251C110.865 30.2309 111.691 29.9472 112.291 29.4752C112.891 29.0032 113.188 28.386 113.188 27.6197C113.188 26.8804 112.926 26.2863 112.411 25.8248C111.894 25.3633 111.124 25.0845 110.107 24.9913C109.499 24.9355 107.754 24.9077 104.878 24.9077H101.36H101.361ZM101.361 34.3764V40.7773H107.041C109.246 40.7773 110.652 40.7273 111.245 40.6321C112.157 40.4994 112.899 40.1822 113.471 39.6775C114.043 39.166 114.334 38.494 114.334 37.6441C114.334 36.9212 114.115 36.3155 113.669 35.8156C113.231 35.3156 112.588 34.9484 111.755 34.7205C110.921 34.4927 109.106 34.3764 106.315 34.3764H101.362H101.361Z" fill="#00A755"/>
<path d="M58.9729 44.8113H52.1416L49.7401 39.9889L43.0662 26.5074L36.8732 39.3765H36.8707L34.2678 44.8113H27.5586L39.7214 20.94H46.4233L58.9729 44.8113Z" fill="#F5842A"/>
<path d="M72.4579 4.38394C74.2261 4.38394 75.9773 4.41374 77.7101 4.47143V7.75938C75.9785 7.70169 74.2274 7.67189 72.4579 7.67189C37.8269 7.67189 9.75376 18.9567 9.75376 32.8766C9.75376 45.4343 32.6028 55.8451 62.5002 57.7631V21.0188H68.4102L84.0764 36.9115V8.96111V8.10451V4.81272C115.477 7.15562 139.343 18.8278 139.343 32.8756C139.343 48.3184 110.501 60.8915 74.5117 61.3539V58.0659C108.192 57.6304 135.163 46.5197 135.163 32.8766C135.163 21.363 115.957 11.653 89.7203 8.64001V44.7344H83.62L68.1429 29.1455V58.0208H68.1454V61.3077C33.2166 60.3608 5.57422 47.9944 5.57422 32.8766C5.57422 17.1416 35.5193 4.3849 72.4591 4.3849L72.4579 4.38394Z" fill="white"/>
<path d="M50.9057 34.7157H35.625V38.4017H50.9057V34.7157Z" fill="#F5842A"/>
<path d="M142.67 13.1374C147.062 13.1374 150.622 10.3379 150.622 6.88449C150.622 3.43113 147.062 0.631622 142.67 0.631622C138.279 0.631622 134.719 3.43113 134.719 6.88449C134.719 10.3379 138.279 13.1374 142.67 13.1374Z" stroke="#2D2A2B" stroke-width="0.75551" stroke-miterlimit="22.9256"/>
<path d="M144.7 10.9752L142.047 7.65649H141.916H140.377V10.9752H138.867V2.79379H142.15C142.844 2.79379 143.445 2.89378 143.952 3.09278C144.46 3.29275 144.849 3.57156 145.118 3.92919C145.386 4.28587 145.52 4.69542 145.52 5.15592C145.52 5.67123 145.342 6.13366 144.985 6.54513C144.628 6.95564 144.133 7.25752 143.497 7.4498L146.472 10.9762H144.7V10.9752ZM140.377 6.69991H141.93C142.517 6.69991 143.003 6.57686 143.388 6.3317C143.774 6.08559 143.967 5.71737 143.967 5.22514C143.967 4.7406 143.779 4.38201 143.403 4.14743C143.026 3.91285 142.545 3.79652 141.959 3.79652H140.377V6.70087V6.69991Z" fill="#2D2A2B"/>
</g>
<defs>
<clipPath id="clip0_62_138">
<rect width="151" height="80" fill="white"/>
</clipPath>
</defs>
</svg>
