<svg width="100" height="100" viewBox="0 0 100 100" fill="none" xmlns="http://www.w3.org/2000/svg">
<circle cx="50" cy="50" r="50" fill="#00A755"/>
<path d="M71.2563 28.7301C68.4917 25.9525 65.1991 23.7501 61.5704 22.2512C57.9417 20.7524 54.0495 19.9872 50.1206 20.0002C33.6583 20.0002 20.2412 33.3501 20.2412 49.7301C20.2412 54.9801 21.6281 60.0801 24.2211 64.58L20 80L35.8291 75.86C40.201 78.23 45.1156 79.49 50.1206 79.49C66.5829 79.49 80 66.14 80 49.7601C80 41.8101 76.8945 34.3401 71.2563 28.7301ZM50.1206 74.45C45.6583 74.45 41.2864 73.25 37.4573 71L36.5528 70.46L27.1457 72.92L29.6482 63.8L29.0452 62.87C26.5655 58.9312 25.249 54.3779 25.2462 49.7301C25.2462 36.1101 36.402 25.0101 50.0904 25.0101C56.7236 25.0101 62.9648 27.5901 67.6382 32.2701C69.9526 34.5617 71.7867 37.2877 73.034 40.2901C74.2814 43.2924 74.9172 46.5113 74.9045 49.7601C74.9648 63.38 63.809 74.45 50.1206 74.45ZM63.7487 55.9701C62.995 55.6101 59.3166 53.8101 58.6533 53.5401C57.9598 53.3001 57.4774 53.1801 56.9648 53.9001C56.4523 54.6501 55.0352 56.3301 54.6131 56.8101C54.191 57.3201 53.7387 57.3801 52.9849 56.9901C52.2312 56.6301 49.8191 55.8201 46.9849 53.3001C44.7538 51.3201 43.2764 48.8901 42.8241 48.1401C42.402 47.3901 42.7638 47.0001 43.1558 46.6101C43.4874 46.2801 43.9095 45.7401 44.2714 45.3201C44.6332 44.9001 44.7839 44.5701 45.0251 44.0901C45.2663 43.5801 45.1457 43.1601 44.9648 42.8001C44.7839 42.4401 43.2764 38.7801 42.6734 37.2801C42.0703 35.8401 41.4372 36.0201 40.9849 35.9901H39.5377C39.0251 35.9901 38.2412 36.1701 37.5477 36.9201C36.8844 37.6701 34.9548 39.4701 34.9548 43.1301C34.9548 46.7901 37.6382 50.3301 38 50.8101C38.3618 51.3201 43.2764 58.8201 50.7538 62.03C52.5327 62.81 53.9196 63.26 55.005 63.59C56.7839 64.16 58.4121 64.07 59.7085 63.89C61.1558 63.68 64.1407 62.09 64.7437 60.3501C65.3769 58.6101 65.3769 57.1401 65.1658 56.8101C64.9548 56.4801 64.5025 56.3301 63.7487 55.9701Z" fill="white"/>
</svg>
