<svg width="131" height="118" viewBox="0 0 131 118" fill="none" xmlns="http://www.w3.org/2000/svg">
<g clip-path="url(#clip0_1_154)">
<path fill-rule="evenodd" clip-rule="evenodd" d="M4.11302 97.1565H1.9043V81.0587H4.11302V97.1565ZM129.248 86.374L128.335 86.2981C127.497 86.2981 126.811 86.5259 126.278 86.9815C125.745 87.4371 125.364 88.1205 125.136 88.8798V97.1565H123.765V85.235H124.983L125.136 87.2093V87.2852C125.44 86.6018 125.973 85.9943 126.507 85.6147C127.116 85.1591 127.801 85.0072 128.639 85.0072C128.792 85.0072 128.944 85.0072 129.096 85.0072C129.248 85.0072 129.325 85.0831 129.477 85.0831L129.248 86.374ZM111.731 91.3856C111.731 92.7524 112.036 93.9673 112.797 94.8785C113.483 95.7897 114.473 96.3212 115.692 96.3212C116.986 96.3212 117.9 95.7897 118.662 94.8785C119.347 93.9673 119.728 92.7524 119.728 91.3856V91.0059C119.728 89.6391 119.347 88.5001 118.662 87.513C117.9 86.6018 116.91 86.0703 115.692 86.0703C114.473 86.0703 113.483 86.6018 112.797 87.513C112.036 88.5001 111.731 89.6391 111.731 91.0059V91.3856ZM110.36 91.0059C110.36 89.2594 110.893 87.8167 111.807 86.6777C112.797 85.5387 114.092 85.0072 115.692 85.0072C117.291 85.0072 118.586 85.5387 119.576 86.6777C120.566 87.8167 121.023 89.2594 121.023 91.0059V91.3856C121.023 93.132 120.566 94.5748 119.576 95.7138C118.586 96.8528 117.291 97.3843 115.692 97.3843C114.092 97.3843 112.797 96.8528 111.807 95.7138C110.893 94.5748 110.36 93.132 110.36 91.3856V91.0059ZM103.81 96.3212C104.648 96.3212 105.41 96.0175 106.095 95.5619C106.704 95.0304 107.085 94.347 107.085 93.4358H108.228L108.304 93.5117C108.304 94.6507 107.847 95.5619 106.933 96.3212C106.095 97.0046 105.029 97.3843 103.81 97.3843C102.211 97.3843 100.992 96.8528 100.078 95.7138C99.1642 94.5748 98.7072 93.208 98.7072 91.4615V90.93C98.7072 89.1835 99.1642 87.7408 100.078 86.6777C100.992 85.5387 102.211 85.0072 103.81 85.0072C105.105 85.0072 106.171 85.3869 107.009 86.1462C107.923 86.9055 108.304 87.9686 108.304 89.1835L108.228 89.2594H107.085C107.085 88.2723 106.78 87.513 106.095 86.9815C105.486 86.374 104.724 86.0703 103.81 86.0703C102.515 86.0703 101.601 86.6018 100.992 87.513C100.383 88.4242 100.078 89.5632 100.078 90.93V91.4615C100.078 92.8283 100.383 93.9673 100.992 94.9544C101.601 95.8656 102.515 96.3212 103.81 96.3212ZM92.1572 86.0703C91.0909 86.0703 90.2531 86.4499 89.6438 87.2093C88.9584 87.9686 88.5776 88.8798 88.5014 89.9428V90.0188H95.4322V89.791C95.4322 88.7279 95.1276 87.8167 94.5182 87.1333C93.9851 86.4499 93.2235 86.0703 92.1572 86.0703ZM92.2334 97.3843C90.7101 97.3843 89.4153 96.8528 88.5014 95.7897C87.5113 94.6507 87.0543 93.2839 87.0543 91.5374V90.93C87.0543 89.1835 87.5113 87.7408 88.5014 86.6777C89.4915 85.5387 90.7101 85.0072 92.1572 85.0072C93.6043 85.0072 94.7467 85.4628 95.5084 86.374C96.3462 87.2852 96.727 88.576 96.727 90.1706V91.1578H88.3491V91.5374C88.3491 92.9042 88.7299 94.0432 89.4153 94.9544C90.1008 95.8656 91.0148 96.3212 92.2334 96.3212C92.995 96.3212 93.6805 96.1694 94.2898 95.9416C94.8991 95.7138 95.4322 95.41 95.813 94.9544L96.4223 95.8656C95.9653 96.3212 95.4322 96.7009 94.7467 97.0046C94.0613 97.2324 93.2235 97.3843 92.2334 97.3843ZM74.0305 82.1977V96.0934H77.6101C79.2095 96.0934 80.5805 95.486 81.5706 94.4229C82.6369 93.2839 83.17 91.8412 83.17 90.1706V88.0445C83.17 86.374 82.6369 85.0072 81.5706 83.8682C80.5805 82.7292 79.2095 82.1977 77.6101 82.1977H74.0305ZM72.6595 97.1565V81.0587H77.6101C79.5903 81.0587 81.2659 81.7421 82.5607 83.0329C83.8555 84.3238 84.4648 85.9943 84.4648 88.1205V90.1706C84.4648 92.2208 83.8555 93.8914 82.5607 95.1822C81.2659 96.549 79.5903 97.1565 77.6101 97.1565H72.6595ZM57.8078 95.5619C58.5694 95.5619 59.331 95.41 59.9403 94.9544C60.6258 94.5748 61.0066 94.1192 61.159 93.5876V91.6134H58.7217C57.8839 91.6134 57.1223 91.8412 56.5892 92.2968C56.056 92.7524 55.8276 93.2839 55.8276 93.8914C55.8276 94.4229 55.9799 94.8026 56.3607 95.1063C56.6653 95.41 57.1223 95.5619 57.8078 95.5619ZM61.4636 97.1565C61.3874 96.8528 61.3113 96.4731 61.2351 96.2453C61.2351 95.9416 61.2351 95.6378 61.159 95.41C60.7781 95.9416 60.245 96.4731 59.6357 96.8528C58.9502 97.2324 58.2648 97.3843 57.5031 97.3843C56.2084 97.3843 55.2944 97.0806 54.6089 96.4731C53.9996 95.7897 53.6188 94.9544 53.6188 93.8154C53.6188 92.6764 54.0758 91.7652 55.0659 91.1578C55.9799 90.4744 57.1985 90.1706 58.7979 90.1706H61.159V88.9557C61.159 88.2723 61.0066 87.7408 60.5496 87.2852C60.0927 86.9055 59.4834 86.6777 58.7217 86.6777C58.0363 86.6777 57.427 86.8296 56.97 87.2093C56.5892 87.5889 56.3607 87.9686 56.3607 88.5001H54.3043L54.2281 88.4242C54.2281 87.5889 54.6089 86.7537 55.4467 86.0703C56.3607 85.3109 57.5031 85.0072 58.8741 85.0072C60.245 85.0072 61.3113 85.3109 62.1491 85.9943C62.9869 86.6777 63.3677 87.6649 63.3677 89.0316V94.8026C63.3677 95.1822 63.3677 95.6378 63.4438 96.0175C63.52 96.3972 63.5962 96.7768 63.6723 97.1565H61.4636ZM36.1014 85.235L36.2537 86.7537C36.6345 86.2221 37.1677 85.7665 37.777 85.4628C38.3863 85.1591 39.0717 85.0072 39.8334 85.0072C40.6712 85.0072 41.3566 85.1591 41.9659 85.5387C42.4991 85.9184 42.956 86.4499 43.2607 87.2093C43.6415 86.5259 44.0985 85.9943 44.7078 85.5387C45.3171 85.1591 46.0787 85.0072 46.9165 85.0072C48.1351 85.0072 49.1252 85.3869 49.8107 86.2221C50.4962 87.0574 50.877 88.3482 50.877 90.0188V97.1565H48.6683V90.0188C48.6683 88.8038 48.5159 87.9686 48.0589 87.513C47.6781 86.9815 47.0688 86.7537 46.231 86.7537C45.4694 86.7537 44.8601 86.9815 44.4031 87.513C43.9462 88.0445 43.7177 88.652 43.6415 89.4872V89.5632V97.1565H41.4328V90.0188C41.4328 88.8798 41.2043 88.0445 40.7473 87.513C40.3665 86.9815 39.7572 86.7537 38.9956 86.7537C38.3101 86.7537 37.777 86.9055 37.32 87.1333C36.9392 87.4371 36.5584 87.8167 36.3299 88.3482V97.1565H34.1212V85.235H36.1014ZM30.77 97.1565H28.6374V85.235H30.77V97.1565ZM30.77 82.1217H28.6374V79.9197H30.77V82.1217ZM23.8392 82.2736V85.235H26.0479V86.8296H23.8392V94.1192C23.8392 94.6507 23.9153 95.0304 24.1438 95.2582C24.3723 95.486 24.677 95.6378 25.0578 95.6378C25.2101 95.6378 25.3624 95.6378 25.5148 95.5619C25.6671 95.5619 25.8194 95.486 25.8956 95.486L26.2002 96.9287C26.0479 97.0806 25.8194 97.2324 25.4386 97.3084C25.1339 97.3843 24.8293 97.3843 24.5246 97.3843C23.6107 97.3843 22.9252 97.1565 22.3921 96.625C21.8589 96.0934 21.6305 95.2582 21.6305 94.1192V86.8296H19.7264V85.235H21.6305V82.2736H23.8392ZM9.74906 85.235L9.90139 86.9815C10.3584 86.374 10.8153 85.8425 11.4246 85.4628C12.0339 85.1591 12.7194 85.0072 13.481 85.0072C14.7758 85.0072 15.7659 85.3869 16.5276 86.1462C17.213 86.8296 17.5938 88.0445 17.5938 89.6391V97.1565H15.3851V89.6391C15.3851 88.576 15.1566 87.8927 14.7758 87.4371C14.3188 86.9815 13.7095 86.7537 12.8717 86.7537C12.1863 86.7537 11.577 86.9055 11.12 87.1333C10.663 87.4371 10.2822 87.8167 9.97755 88.2723V97.1565H7.84499V85.235H9.74906Z" fill="#2B2A29"/>
<path fill-rule="evenodd" clip-rule="evenodd" d="M40.3659 15.6042V6.49228C40.3659 6.18855 40.2135 5.88481 39.985 5.65701C39.6804 5.35328 39.3757 5.20142 39.0711 5.20142H30.5409C30.2362 5.20142 29.9316 5.35328 29.7031 5.65701C29.3984 5.88481 29.2461 6.18855 29.2461 6.49228V15.6042H40.3659Z" fill="#2B2A29"/>
<path fill-rule="evenodd" clip-rule="evenodd" d="M29.2461 21.9067V68.074C29.2461 68.3777 29.3984 68.6815 29.7031 68.9093C29.9316 69.213 30.2362 69.3649 30.5409 69.3649H39.0711C39.3757 69.3649 39.6804 69.213 39.985 68.9093C40.2135 68.6815 40.3659 68.3777 40.3659 68.074V21.9067H29.2461ZM100.687 24.7922C99.0112 20.9196 96.6502 17.5026 93.756 14.6171C90.7856 11.7317 87.3583 9.45367 83.474 7.70721C79.5135 6.03668 75.3246 5.20142 70.9833 5.20142H50.8763C50.5717 5.20142 50.267 5.35328 50.0385 5.65701C49.81 5.88481 49.6577 6.18855 49.6577 6.49228V15.6042H63.2147H69.8409C72.9635 15.6042 75.8577 16.1358 78.4473 17.1988C81.0368 18.3378 83.3217 19.8565 85.2257 21.7548C87.0537 23.6532 88.5769 25.9311 89.6432 28.5888C90.7095 31.1705 91.2426 34.056 91.2426 37.1692C91.2426 40.2825 90.7095 43.168 89.6432 45.8256C88.5769 48.4833 87.0537 50.7613 85.2257 52.7355C83.3217 54.6339 81.0368 56.1525 78.4473 57.2915C75.8577 58.3546 72.9635 58.8861 69.8409 58.8861H61.006C60.7013 58.8861 60.4728 58.7342 60.4728 58.3546V21.9067H49.6577V68.074C49.6577 68.3777 49.81 68.6815 50.0385 68.9093C50.267 69.213 50.5717 69.3649 50.8763 69.3649H70.9833C75.3246 69.3649 79.5135 68.5296 83.474 66.8591C87.3583 65.1885 90.7856 62.8346 93.756 59.9492C96.6502 57.0637 99.0112 53.6467 100.687 49.7741C102.362 45.8256 103.2 41.6493 103.2 37.1692C103.2 32.7651 102.362 28.6647 100.687 24.7922Z" fill="#E31E29"/>
<path d="M101.753 9.15005V3.53101H104.343C104.571 3.53101 104.8 3.53101 105.028 3.53101C105.181 3.53101 105.409 3.60694 105.485 3.68287C105.638 3.68287 105.79 3.75881 105.866 3.91067C106.019 3.98661 106.095 4.06254 106.171 4.21441C106.247 4.36627 106.323 4.51814 106.399 4.67C106.399 4.82187 106.399 4.97374 106.399 5.1256C106.399 5.3534 106.399 5.50527 106.323 5.73307C106.247 5.88493 106.171 6.0368 106.019 6.18866C105.866 6.34053 105.714 6.4924 105.485 6.56833C105.409 6.56833 105.257 6.64426 105.105 6.64426C105.181 6.7202 105.257 6.79613 105.257 6.79613C105.409 6.948 105.485 7.02393 105.638 7.1758C105.714 7.25173 105.79 7.40359 105.942 7.55546L107.009 9.22599H105.79L105.028 8.08699L104.724 7.63139L104.495 7.32766C104.419 7.25173 104.343 7.1758 104.343 7.09986C104.267 7.02393 104.191 6.948 104.114 6.948C104.114 6.948 104.038 6.87206 103.962 6.87206C103.962 6.87206 103.886 6.87206 103.886 6.79613H103.734H103.505H102.744V9.22599H101.753V9.15005ZM104.343 0.0380859C106.171 0.0380859 107.846 0.721484 109.065 1.86048C110.284 2.99948 111.045 4.59407 111.045 6.34053C111.045 8.16292 110.284 9.68159 109.065 10.8965C107.846 12.0355 106.171 12.7189 104.343 12.7189C102.439 12.7189 100.763 12.0355 99.5447 10.8965C98.3261 9.75752 97.5645 8.16292 97.5645 6.34053C97.5645 4.59407 98.3261 2.99948 99.5447 1.86048C100.763 0.721484 102.439 0.0380859 104.343 0.0380859ZM108.303 2.69574C107.313 1.70861 105.866 1.10115 104.343 1.10115C102.744 1.10115 101.373 1.70861 100.306 2.69574C99.3162 3.60694 98.7069 4.97374 98.7069 6.34053C98.7069 7.78326 99.3162 9.15005 100.306 10.0613C101.373 11.0484 102.744 11.5799 104.343 11.5799C105.866 11.5799 107.313 11.0484 108.303 10.0613C109.37 9.15005 109.979 7.78326 109.979 6.34053C109.979 4.8978 109.37 3.60694 108.303 2.69574ZM102.744 5.96087H104.191C104.343 5.96087 104.495 5.96087 104.648 5.88493C104.724 5.88493 104.876 5.88493 104.952 5.809C105.028 5.809 105.105 5.73307 105.181 5.73307C105.257 5.65713 105.257 5.5812 105.333 5.5812C105.333 5.50527 105.409 5.42933 105.409 5.3534C105.409 5.27747 105.409 5.20154 105.409 5.1256C105.409 4.97374 105.409 4.8978 105.409 4.82187C105.333 4.74594 105.257 4.67 105.181 4.59407C105.105 4.51814 105.028 4.4422 104.876 4.36627C104.724 4.36627 104.571 4.36627 104.343 4.36627H102.744V5.96087Z" fill="#2B2A29"/>
<path d="M3.8843 115.912C4.87442 115.912 6.01686 115.608 6.85465 114.317L6.16919 113.786C5.55988 114.697 4.64593 115.001 3.96047 115.001C2.28488 115.001 0.913954 113.71 0.913954 111.736C0.913954 109.837 2.28488 108.546 3.8843 108.546C4.64593 108.546 5.55988 108.774 6.16919 109.685L6.85465 109.154C6.01686 107.939 4.79826 107.559 3.8843 107.559C1.75174 107.559 0 109.306 0 111.736C0 114.241 1.75174 115.912 3.8843 115.912ZM30.8459 109.761C29.475 109.761 28.1041 110.824 28.1041 112.875C28.1041 114.849 29.475 115.912 30.9221 115.912C31.836 115.912 32.6738 115.532 33.207 114.849L32.75 114.393C32.293 114.849 31.6837 115.077 31.0744 115.077C30.0081 115.077 29.0942 114.469 28.9419 113.178H33.5116C33.7401 110.824 32.293 109.761 30.8459 109.761ZM30.8459 110.597C31.836 110.597 32.6738 111.28 32.75 112.495H28.9419C29.0942 111.204 29.932 110.597 30.8459 110.597ZM34.5779 115.912C34.8826 115.912 35.111 115.684 35.111 115.38C35.111 115.001 34.8826 114.773 34.5779 114.773C34.2733 114.773 34.0448 115.001 34.0448 115.38C34.0448 115.684 34.2733 115.912 34.5779 115.912ZM42.8035 115.912C44.3267 115.912 45.5453 114.849 45.5453 112.951V107.711H44.6314V112.875C44.6314 114.317 43.7936 115.001 42.8035 115.001C41.8134 115.001 40.9756 114.317 40.9756 112.875V107.711H40.0616V112.951C40.0616 114.849 41.2802 115.912 42.8035 115.912ZM77.1529 115.912C77.4576 115.912 77.6861 115.684 77.6861 115.38C77.6861 115.001 77.4576 114.773 77.1529 114.773C76.8483 114.773 76.6198 115.001 76.6198 115.38C76.6198 115.684 76.8483 115.912 77.1529 115.912ZM88.1204 115.836L86.2163 112.799C87.2826 112.419 87.8157 111.584 87.8157 110.369C87.8157 108.774 86.8256 107.711 85.2262 107.711H82.789V115.836H83.7029V112.951H85.2262H85.3023L87.1302 115.836H88.1204ZM83.7029 108.622H85.15C86.2163 108.622 86.9017 109.23 86.9017 110.369C86.9017 111.508 86.2163 112.039 85.15 112.039H83.7029V108.622ZM130.467 115.912C130.772 115.912 131 115.684 131 115.38C131 115.001 130.772 114.773 130.467 114.773C130.162 114.773 129.934 115.001 129.934 115.38C129.934 115.684 130.162 115.912 130.467 115.912ZM10.6628 109.761C9.59651 109.761 9.06337 110.521 8.83488 111.356V109.913H7.92093V115.836H8.83488V112.799C8.83488 111.508 9.59651 110.673 10.6628 110.673C10.739 110.673 10.8913 110.673 10.9674 110.673V109.837C10.8913 109.761 10.739 109.761 10.6628 109.761ZM14.3186 109.761C12.8715 109.761 11.5006 110.824 11.5006 112.875C11.5006 114.849 12.8715 115.912 14.3948 115.912C15.3087 115.912 16.0703 115.532 16.6035 114.849L16.1465 114.393C15.7657 114.849 15.1564 115.077 14.4709 115.077C13.4047 115.077 12.4907 114.469 12.4145 113.178H16.9843C17.2128 110.824 15.7657 109.761 14.3186 109.761ZM14.3186 110.597C15.2326 110.597 16.1465 111.28 16.2227 112.495H12.4145C12.4907 111.204 13.4047 110.597 14.3186 110.597ZM20.4878 115.912C21.5541 115.912 22.3157 115.305 22.6203 114.697V115.836H23.5343V109.913H22.6203V110.976C22.3157 110.369 21.5541 109.761 20.4878 109.761C19.1169 109.761 17.7459 110.824 17.7459 112.875C17.7459 114.849 19.1169 115.912 20.4878 115.912ZM20.6401 115.077C19.65 115.077 18.6599 114.317 18.6599 112.875C18.6599 111.356 19.65 110.673 20.6401 110.673C21.6302 110.673 22.6965 111.356 22.6965 112.875C22.6965 114.317 21.6302 115.077 20.6401 115.077ZM27.2663 110.673V109.913H26.2V108.319H25.286V109.913H24.5244V110.673H25.286V114.621C25.286 115.532 25.8192 115.912 26.5047 115.912C26.8093 115.912 27.114 115.836 27.2663 115.684V114.925C27.114 115.001 26.8855 115.001 26.8093 115.001C26.3523 115.001 26.2 114.773 26.2 114.393V110.673H27.2663ZM49.8105 109.761C48.8204 109.761 47.9826 110.369 47.7541 110.976H47.6779V109.913H46.8401V117.962H47.6779V114.697H47.7541C47.9826 115.305 48.8204 115.912 49.8105 115.912C51.1814 115.912 52.5523 114.849 52.5523 112.875C52.5523 110.824 51.1814 109.761 49.8105 109.761ZM49.6581 115.077C48.668 115.077 47.6779 114.317 47.6779 112.875C47.6779 111.356 48.668 110.673 49.6581 110.673C50.7244 110.673 51.7145 111.356 51.7145 112.875C51.7145 114.317 50.7244 115.077 49.6581 115.077ZM58.1884 107.711V110.976C57.8837 110.369 57.1221 109.761 56.0558 109.761C54.6849 109.761 53.314 110.824 53.314 112.875C53.314 114.849 54.6849 115.912 56.0558 115.912C57.1221 115.912 57.8837 115.305 58.1884 114.697V115.836H59.1023V107.711H58.1884ZM56.2081 115.077C55.218 115.077 54.2279 114.317 54.2279 112.875C54.2279 111.356 55.218 110.673 56.2081 110.673C57.1983 110.673 58.1884 111.356 58.1884 112.875C58.1884 114.317 57.1983 115.077 56.2081 115.077ZM62.8343 115.912C63.9006 115.912 64.6622 115.305 64.9669 114.697V115.836H65.8808V109.913H64.9669V110.976C64.6622 110.369 63.9006 109.761 62.8343 109.761C61.4634 109.761 60.0924 110.824 60.0924 112.875C60.0924 114.849 61.4634 115.912 62.8343 115.912ZM62.9866 115.077C61.9965 115.077 61.0064 114.317 61.0064 112.875C61.0064 111.356 61.9965 110.673 62.9866 110.673C63.9767 110.673 64.9669 111.356 64.9669 112.875C64.9669 114.317 63.9767 115.077 62.9866 115.077ZM69.6128 110.673V109.913H68.5465V108.319H67.6326V109.913H66.8709V110.673H67.6326V114.621C67.6326 115.532 68.1657 115.912 68.8512 115.912C69.1558 115.912 69.4605 115.836 69.6128 115.684V114.925C69.4605 115.001 69.232 115.001 69.1558 115.001C68.6988 115.001 68.5465 114.773 68.5465 114.393V110.673H69.6128ZM73.1924 109.761C71.7454 109.761 70.3744 110.824 70.3744 112.875C70.3744 114.849 71.7454 115.912 73.2686 115.912C74.1826 115.912 74.9442 115.532 75.4773 114.849L75.0203 114.393C74.5634 114.849 74.0302 115.077 73.3448 115.077C72.2785 115.077 71.3645 114.469 71.2122 113.178H75.8581C76.0866 110.824 74.5634 109.761 73.1924 109.761ZM73.1924 110.597C74.1064 110.597 74.9442 111.28 75.0203 112.495H71.2122C71.3645 111.204 72.2785 110.597 73.1924 110.597ZM91.7 109.761C90.2529 109.761 88.882 110.824 88.882 112.875C88.882 114.849 90.2529 115.912 91.7762 115.912C92.6901 115.912 93.5279 115.532 93.9849 114.849L93.5279 114.393C93.1471 114.849 92.5378 115.077 91.8523 115.077C90.786 115.077 89.9483 114.469 89.7959 113.178H94.3657C94.5942 110.824 93.1471 109.761 91.7 109.761ZM91.7 110.597C92.614 110.597 93.5279 111.28 93.6041 112.495H89.7959C89.9483 111.204 90.786 110.597 91.7 110.597ZM98.1738 109.761C97.1837 109.761 96.5744 110.293 96.3459 110.824V109.913H95.432V115.836H96.3459V112.495C96.3459 111.28 97.0314 110.673 97.9454 110.673C98.7831 110.673 99.4686 111.28 99.4686 112.495V115.836H100.383V112.343C100.383 110.521 99.3924 109.761 98.1738 109.761ZM104.267 115.912C105.714 115.912 107.161 114.849 107.161 112.875C107.161 110.824 105.714 109.761 104.267 109.761C102.82 109.761 101.373 110.824 101.373 112.875C101.373 114.849 102.82 115.912 104.267 115.912ZM104.267 115.077C103.277 115.077 102.287 114.241 102.287 112.875C102.287 111.432 103.277 110.673 104.267 110.673C105.333 110.673 106.247 111.432 106.247 112.875C106.247 114.241 105.333 115.077 104.267 115.077ZM109.827 115.836H110.665L113.102 109.913H112.112L110.284 114.621L108.456 109.913H107.466L109.827 115.836ZM116.148 115.912C117.138 115.912 117.976 115.305 118.205 114.697H118.281V115.836H119.119V109.913H118.281V110.976H118.205C117.976 110.369 117.138 109.761 116.148 109.761C114.777 109.761 113.406 110.824 113.406 112.875C113.406 114.849 114.777 115.912 116.148 115.912ZM116.301 115.077C115.31 115.077 114.32 114.317 114.32 112.875C114.32 111.356 115.31 110.673 116.301 110.673C117.291 110.673 118.281 111.356 118.281 112.875C118.281 114.317 117.291 115.077 116.301 115.077ZM122.927 110.673V109.913H121.784V108.319H120.947V109.913H120.185V110.673H120.947V114.621C120.947 115.532 121.403 115.912 122.165 115.912C122.394 115.912 122.698 115.836 122.927 115.684V114.925C122.698 115.001 122.546 115.001 122.394 115.001C122.013 115.001 121.784 114.773 121.784 114.393V110.673H122.927ZM126.43 109.761C125.059 109.761 123.688 110.824 123.688 112.875C123.688 114.849 124.983 115.912 126.506 115.912C127.42 115.912 128.258 115.532 128.715 114.849L128.258 114.393C127.877 114.849 127.268 115.077 126.659 115.077C125.516 115.077 124.678 114.469 124.526 113.178H129.096C129.324 110.824 127.877 109.761 126.43 109.761ZM126.43 110.597C127.42 110.597 128.258 111.28 128.334 112.495H124.526C124.678 111.204 125.516 110.597 126.43 110.597Z" fill="#2B2A29"/>
</g>
<defs>
<clipPath id="clip0_1_154">
<rect width="131" height="118" fill="white"/>
</clipPath>
</defs>
</svg>
