<svg width="452" height="100" viewBox="0 0 452 100" fill="none" xmlns="http://www.w3.org/2000/svg">
<g clip-path="url(#clip0_1_145)">
<path d="M81.2321 70.8199L86.023 62.7199C86.023 62.7199 82.6934 64.1732 80.6916 60.7933C78.9901 57.9199 59.5396 24.5799 53.7611 14.6866C52.1997 12.0133 51.419 8.92659 51.6859 5.83992C51.7327 5.30659 51.8061 4.77992 51.9262 4.26659L50.258 0.0065918L34.6309 35.4133L77.5955 76.9532L81.2254 70.8266L81.2321 70.8199Z" fill="#AAAB4E"/>
<path d="M55.2018 0H14.9595C3.46932 0 -3.71704 12.4133 2.00803 22.36L42.3437 92.46C48.0888 102.44 62.4682 102.527 68.3267 92.62L81.6051 70.1867C81.6051 70.1867 79.6034 70.3667 78.3423 69.1867C77.2279 68.14 56.3828 26.9533 51.6319 17.5467C50.6311 15.56 50.0772 13.3667 50.1306 11.14C50.1506 10.2533 50.2507 9.3 50.4642 8.28667C51.4251 3.78667 54.1141 1.01333 55.1951 0L55.2018 0Z" fill="#E2DA47"/>
<path d="M76.2482 0H107.029C111.079 0 113.628 4.35333 111.646 7.88L96.366 35.04C94.3509 38.6267 89.193 38.64 87.1512 35.0667L71.6575 7.90666C69.6424 4.38 72.1913 0 76.2549 0H76.2482Z" fill="#E2DA47"/>
<path d="M445.788 55.88C445.788 50.0333 443.339 45.3133 438.448 41.74C433.99 38.4667 428.592 36.8333 422.26 36.8333C415.928 36.8333 410.65 38.46 406.072 41.74C401.055 45.3133 398.546 50.0333 398.546 55.88C398.546 61.7267 400.808 66.54 405.325 70.1133C409.842 73.7 415.487 75.4867 422.267 75.4867C428.479 75.4867 433.877 73.7333 438.454 70.2067C443.352 66.4467 445.794 61.6667 445.794 55.88M452 55.9267C452 63.5733 448.924 69.7533 442.778 74.4533C437.066 78.78 430.227 80.94 422.26 80.94C414.293 80.94 407.167 78.8067 401.648 74.5467C395.563 69.8467 392.52 63.64 392.52 55.9267C392.52 48.2133 395.563 41.98 401.648 37.4C407.233 33.2 414.106 31.1 422.26 31.1C430.414 31.1 437.006 33.1667 442.591 37.3067C448.864 41.9467 452.006 48.1533 452.006 55.9267H452ZM390.559 37.3067H370.694V80H365.33V37.3067H345.752V32.04H390.559V37.3067ZM337.118 80H330.152L293.913 39V80H288.268V32.04H295.047L330.913 72.18V32.04H337.125V80H337.118ZM274.643 80H228.615V32.04H273.235V37.3067H233.987V53.1067H256.293V58H233.987V74.74H274.649V80.0067L274.643 80ZM209.905 80H204.447V32.04H209.905V80ZM195.152 20L166.727 80H160.141L131.416 20H138.002L163.324 72.68L188.286 20H195.159H195.152Z" fill="black"/>
</g>
<defs>
<clipPath id="clip0_1_145">
<rect width="452" height="100" fill="white"/>
</clipPath>
</defs>
</svg>
